<?xml version="1.0" encoding="utf-8"?>
<!-- Generator: Adobe Illustrator 26.5.0, SVG Export Plug-In . SVG Version: 6.00 Build 0)  -->
<svg version="1.1" id="Layer_1" xmlns="http://www.w3.org/2000/svg" xmlns:xlink="http://www.w3.org/1999/xlink" x="0px" y="0px"
	 viewBox="0 0 512 512" style="enable-background:new 0 0 512 512;" xml:space="preserve">
<style type="text/css">
	.st0{stroke:#231F20;stroke-miterlimit:10;}
</style>
<g>
	<path class="st0" d="M488.9,229.3c-1.3,1.6-2,3.7-2,5.8v40.6c-1.1,39.1-28.6,41.9-35-19.3l0,0c-1.7-13.8-5.6-33.4-14.5-48.7
		c-10.6-18.3-19.8-23.9-44-24.4c-17.5-0.3-33.7,11.5-42.2,25.1c-2.2,3.4-7.2,3.4-9.4,0c-8.5-13.5-19.4-25-41.5-25
		c-24.7,0-30.1,9.2-44.1,25c-6.1,6.9-12.9,8.6-19.1,3.5c-16.8-13.8-33.6-24.1-53.3-23.4c-19.6-0.7-37.8,8.1-53.3,23.4
		c-6,5.9-12.3,3.9-18.5-4.2c-14.3-18.8-33.8-28.1-58-22.9c-25,5.3-40.1,21.5-48.1,45.1c-5.3,15.5-3.8,74.2-3.6,83.4
		c0.2,6.7-2.3,16.5,9,16.1c10.3-0.3,9.7-9.7,9.8-16.6c0.3-18.6-0.6-45.3,0.4-63.9c1.2-23.5,18.4-42.4,38.9-44.8
		c20.9-2.4,37.2,10.2,44.7,35.5c3.9,13.2,6.3,26.8,10.5,39.9c2.5,7.8,6.2,14.8,10.8,20.9c2.8,3.9,6.1,7.5,9.8,10.8
		c13.8,12.4,30.8,18,47.6,17.8c16.8,0.2,33.8-5.5,47.6-17.8c3.7-3.3,7-7,9.8-10.8c4.6-6.1,8.3-13.1,10.8-20.9
		c4.2-13.1,6.6-26.7,10.5-39.9c5-16.8,18.4-36.5,37.1-36.4c20.7,0.2,35.3,22.2,36.5,45.7c0.1,1.2,0.5,28.7,0.8,44
		c0.1,4.2,2.6,8.1,6.6,9.4c2.3,0.8,4.8,0.7,7.1-0.3c3.5-1.5,5.6-5.1,5.7-8.9c0.3-15.5,0.6-43.1,0.7-44.3
		c1.2-23.5,15.8-45.5,36.5-45.7c18.8-0.2,30.1,19.6,35.1,36.4c2.7,9.1,3.5,22,5.1,33.5l0,0c2.1,23.6,11.1,55.8,39.9,55.8
		c16.4,0,29.3-10.3,33.6-26.4c1.8-6.6,2.9-14.4,2.9-23.7v-43.9c0-1.8-0.2-3.9-1.2-5.4C504.8,223.6,494.1,222.8,488.9,229.3z
		 M230.2,281.1c-8.4,17-25.9,28.8-46.3,28.8s-37.9-11.8-46.3-28.8c-3.3-6.7-5.1-14.3-5.1-22.3c0-6.7,1.2-13,3.5-18.8
		c7.5-18.9,25.9-32.2,47.9-32.2c22,0.1,40.5,13.3,47.9,32.2c2.2,5.8,3.5,12.1,3.5,18.8C235.3,266.7,233.5,274.3,230.2,281.1z"/>
	<circle class="st0" cx="497.2" cy="195.5" r="12.9"/>
</g>
</svg>
